<svg version="1.0" preserveAspectRatio="xMidYMid meet" viewBox="0 45.865919617784 121.67928 29.99999975" zoomAndPan="magnify" xmlns:xlink="http://www.w3.org/1999/xlink" xmlns="http://www.w3.org/2000/svg" style="max-height: 500px" width="121.67928" height="29.99999975"><defs><clipPath id="36f5d9413f"><path clip-rule="nonzero" d="M 47 53 L 63 53 L 63 68.625 L 47 68.625 Z M 47 53"/></clipPath><clipPath id="2522962b84"><path clip-rule="nonzero" d="M 60 53 L 70 53 L 70 68.625 L 60 68.625 Z M 60 53"/></clipPath><clipPath id="14ef28a8ac"><path clip-rule="nonzero" d="M 60 51.375 L 73 51.375 L 73 68.625 L 60 68.625 Z M 60 51.375"/></clipPath></defs><path fill-rule="nonzero" fill-opacity="1" d="M 60.503906 55.828125 C 60.292969 55.125 59.683594 54.261719 58.679688 53.851562 C 58.355469 53.703125 58.003906 53.621094 57.648438 53.570312 C 57.40625 53.539062 57.15625 53.519531 56.910156 53.539062 C 56.902344 53.539062 56.894531 53.539062 56.886719 53.539062 C 56.578125 53.5 56.269531 53.566406 55.972656 53.652344 C 55.535156 53.773438 55.109375 53.941406 54.683594 54.105469 C 53.824219 54.433594 53.011719 54.871094 52.242188 55.375 C 51.351562 55.9375 50.558594 56.632812 49.859375 57.414062 C 49.15625 58.179688 48.585938 59.082031 48.25 60.070312 C 48.054688 60.78125 47.996094 61.113281 47.910156 61.867188 C 47.871094 62.335938 47.839844 62.828125 48.007812 63.277344 C 48.332031 64.175781 48.945312 64.75 49.882812 64.972656 C 50.410156 65.101562 50.789062 65.15625 51.488281 65.109375 C 52.695312 64.996094 53.863281 64.589844 54.941406 64.03125 C 55.839844 63.535156 56.652344 62.894531 57.429688 62.226562 C 58.421875 61.347656 59.347656 60.347656 59.9375 59.148438 C 60.457031 58.144531 60.917969 56.945312 60.503906 55.828125 Z M 59.722656 58.089844 C 59.539062 58.558594 59.351562 58.933594 59.003906 59.492188 C 58.269531 60.703125 56.617188 62.082031 55.566406 62.828125 C 55.058594 63.195312 54.511719 63.503906 53.933594 63.746094 C 53.378906 63.992188 53.03125 64.105469 52.320312 64.265625 C 51.570312 64.417969 51.234375 64.476562 50.429688 64.371094 C 50.25 64.347656 49.929688 64.28125 49.554688 64.125 C 49.511719 64.101562 49.4375 64.0625 49.40625 64.042969 C 49.363281 64.023438 49.269531 63.945312 49.21875 63.910156 C 48.941406 63.640625 48.957031 63.648438 48.757812 63.3125 C 48.554688 62.910156 48.542969 62.746094 48.5625 62.144531 C 48.582031 61.324219 48.835938 60.265625 49.144531 59.675781 C 49.617188 58.714844 50.074219 58.15625 50.742188 57.480469 C 51.507812 56.695312 52.125 56.230469 52.949219 55.726562 C 54.765625 54.617188 56.476562 53.976562 57.730469 54.207031 C 57.75 54.210938 57.773438 54.214844 57.792969 54.21875 C 58.039062 54.265625 58.28125 54.347656 58.515625 54.453125 C 58.671875 54.53125 58.828125 54.621094 58.972656 54.722656 C 59.183594 54.878906 59.066406 54.785156 59.246094 54.949219 C 59.683594 55.335938 59.964844 56.078125 60 56.359375 C 60.042969 57.09375 59.972656 57.394531 59.722656 58.089844 Z M 59.722656 58.089844" fill="#916e53"/><path fill-rule="nonzero" fill-opacity="1" d="M 60.097656 57.011719 C 59.507812 56.378906 58.476562 56.355469 57.671875 56.460938 C 57.074219 56.554688 56.5 56.78125 55.953125 57.035156 C 55.433594 57.292969 54.960938 57.632812 54.492188 57.976562 C 53.738281 58.511719 53.0625 59.148438 52.445312 59.835938 C 51.738281 60.621094 51.109375 61.492188 50.722656 62.480469 C 50.5 63.0625 50.339844 63.707031 50.488281 64.328125 C 50.554688 64.550781 50.636719 64.914062 50.9375 64.878906 C 51.152344 64.871094 51.285156 64.609375 51.179688 64.425781 C 51.082031 64.226562 51.117188 64.335938 51.054688 64.070312 C 51 63.726562 51.078125 63.242188 51.3125 62.664062 C 51.667969 61.746094 52.402344 60.753906 53.136719 59.996094 C 53.65625 59.445312 54.21875 58.929688 54.839844 58.492188 C 55.226562 58.207031 55.453125 58.03125 55.972656 57.730469 C 56.402344 57.492188 56.730469 57.367188 57.03125 57.265625 C 57.9375 56.953125 59.035156 56.898438 59.636719 57.347656 C 59.707031 57.402344 59.890625 57.523438 59.980469 57.652344 C 60.25 57.792969 60.3125 57.238281 60.097656 57.011719 Z M 60.097656 57.011719" fill="#916e53"/><g clip-path="url(#36f5d9413f)"><path fill-rule="nonzero" fill-opacity="1" d="M 62.835938 57.722656 C 62.519531 56.472656 61.605469 54.972656 60.492188 54.285156 C 58.933594 53.324219 57.371094 53.371094 56.222656 53.585938 C 55.898438 53.648438 56.015625 54.269531 56.304688 54.125 C 56.402344 54.046875 57.109375 54.117188 57.59375 54.128906 C 58.507812 54.140625 59.257812 54.320312 59.929688 54.6875 C 61.199219 55.339844 62.203125 57.066406 62.335938 58.257812 C 62.402344 58.753906 62.335938 59.253906 62.25 59.746094 C 62.164062 60.425781 61.664062 61.691406 60.980469 62.589844 C 60.304688 63.585938 59.734375 64.246094 58.820312 65.070312 C 57.472656 66.257812 56.101562 67.097656 54.375 67.621094 C 53.417969 67.902344 52.8125 68.097656 51.878906 67.941406 C 51.679688 67.902344 51.476562 67.859375 51.285156 67.800781 C 51.03125 67.726562 50.785156 67.632812 50.542969 67.527344 C 50.5 67.503906 50.5 67.507812 50.519531 67.519531 C 50.515625 67.519531 50.511719 67.515625 50.507812 67.515625 C 50.011719 67.269531 49.484375 66.894531 49.257812 66.679688 C 47.84375 65.390625 47.613281 63.507812 48.113281 61.699219 C 48.285156 61.085938 48.429688 60.816406 48.667969 60.324219 C 48.90625 59.832031 49.027344 59.578125 49.28125 59.046875 C 49.28125 59.046875 49.300781 59.011719 49.316406 58.976562 C 49.414062 58.761719 49.449219 58.742188 49.484375 58.613281 C 49.527344 58.453125 49.351562 58.300781 49.199219 58.34375 C 49.113281 58.363281 49.054688 58.429688 49.019531 58.507812 C 48.96875 58.601562 48.917969 58.695312 48.863281 58.789062 C 48.691406 59.089844 48.527344 59.390625 48.359375 59.691406 C 48.09375 60.210938 47.816406 60.726562 47.621094 61.28125 C 47.375 62.082031 47.203125 62.921875 47.269531 63.765625 C 47.378906 65.886719 48.703125 67.578125 50.703125 68.308594 C 52.175781 68.824219 53.152344 68.65625 54.601562 68.222656 C 56.855469 67.589844 58.773438 66.125 60.300781 64.398438 C 60.625 64.042969 61.089844 63.421875 61.46875 62.851562 C 61.769531 62.421875 62.039062 61.964844 62.246094 61.484375 C 62.511719 60.902344 62.691406 60.289062 62.792969 59.65625 C 62.933594 59.019531 62.964844 58.363281 62.835938 57.722656 Z M 62.835938 57.722656" fill="#916e53"/></g><g clip-path="url(#2522962b84)"><path fill-rule="nonzero" fill-opacity="1" d="M 69.003906 60.308594 C 68.71875 59.324219 68.390625 58.34375 67.914062 57.4375 C 67.324219 56.378906 66.574219 55.398438 65.621094 54.636719 C 65.066406 54.21875 64.722656 54.054688 64.207031 53.871094 C 63.300781 53.546875 62.476562 53.6875 61.707031 54.261719 C 61.332031 54.539062 61.089844 54.949219 60.871094 55.355469 L 61.359375 55.84375 C 61.421875 55.726562 61.484375 55.613281 61.546875 55.507812 C 61.859375 54.992188 61.960938 54.863281 62.351562 54.640625 C 62.703125 54.464844 62.6875 54.464844 63.066406 54.394531 C 63.128906 54.390625 63.25 54.378906 63.292969 54.386719 C 63.332031 54.382812 63.414062 54.394531 63.464844 54.402344 C 63.863281 54.472656 64.167969 54.59375 64.332031 54.675781 C 65.0625 55.027344 65.3125 55.261719 65.851562 55.800781 C 66.363281 56.324219 66.585938 56.605469 66.917969 57.121094 C 67.265625 57.640625 67.554688 58.199219 67.777344 58.78125 C 68.25 59.984375 68.867188 62.042969 68.820312 63.460938 C 68.804688 64.117188 68.75 64.535156 68.648438 65.027344 C 68.476562 65.742188 68.367188 66.035156 67.929688 66.625 C 67.746094 66.839844 67.101562 67.304688 66.523438 67.390625 C 66.285156 67.429688 66.433594 67.414062 66.171875 67.425781 C 65.996094 67.433594 65.820312 67.421875 65.644531 67.398438 C 65.394531 67.363281 65.144531 67.296875 64.914062 67.203125 C 64.894531 67.191406 64.871094 67.183594 64.851562 67.175781 C 63.679688 66.683594 62.601562 65.207031 61.691406 63.28125 C 61.546875 62.972656 61.417969 62.679688 61.304688 62.386719 C 61.253906 62.46875 61.199219 62.546875 61.136719 62.621094 C 61.046875 62.777344 60.960938 62.9375 60.878906 63.097656 C 60.878906 63.101562 60.875 63.105469 60.875 63.109375 C 60.882812 63.136719 60.894531 63.164062 60.910156 63.191406 C 61.277344 64.03125 61.714844 64.847656 62.253906 65.589844 C 62.519531 65.960938 62.785156 66.332031 63.082031 66.679688 C 63.28125 66.910156 63.503906 67.136719 63.78125 67.273438 C 63.789062 67.277344 63.796875 67.28125 63.800781 67.285156 C 63.996094 67.4375 64.214844 67.558594 64.433594 67.664062 C 64.757812 67.816406 65.097656 67.941406 65.453125 67.996094 C 66.515625 68.203125 67.5 67.8125 68.0625 67.34375 C 69.019531 66.636719 69.296875 65.378906 69.414062 64.257812 C 69.578125 62.933594 69.351562 61.589844 69.003906 60.308594 Z M 69.003906 60.308594" fill="#916e53"/></g><path fill-rule="nonzero" fill-opacity="1" d="M 68.375 66.128906 C 67.535156 66.332031 66.660156 65.785156 66.042969 65.257812 C 65.59375 64.851562 65.242188 64.347656 64.921875 63.835938 C 64.628906 63.332031 64.421875 62.789062 64.21875 62.246094 C 63.878906 61.386719 63.667969 60.484375 63.527344 59.570312 C 63.363281 58.527344 63.320312 57.453125 63.539062 56.414062 C 63.671875 55.804688 63.894531 55.175781 64.359375 54.738281 C 64.535156 54.589844 64.804688 54.332031 65.035156 54.523438 C 65.210938 54.648438 65.179688 54.941406 64.992188 55.035156 C 64.800781 55.144531 64.886719 55.074219 64.691406 55.265625 C 64.460938 55.519531 64.257812 55.96875 64.132812 56.578125 C 63.929688 57.539062 63.996094 58.773438 64.195312 59.8125 C 64.328125 60.558594 64.515625 61.296875 64.792969 62.003906 C 64.960938 62.457031 65.054688 62.722656 65.324219 63.261719 C 65.554688 63.695312 65.757812 63.980469 65.953125 64.230469 C 66.539062 64.988281 67.425781 65.636719 68.175781 65.59375 C 68.265625 65.585938 68.484375 65.585938 68.628906 65.527344 C 68.929688 65.5625 68.675781 66.058594 68.375 66.128906 Z M 68.375 66.128906" fill="#916e53"/><g clip-path="url(#14ef28a8ac)"><path fill-rule="nonzero" fill-opacity="1" d="M 72.730469 62.003906 C 72.726562 61.316406 72.675781 60.542969 72.601562 60.070312 C 72.273438 57.785156 71.472656 55.511719 69.933594 53.746094 C 68.960938 52.585938 68.238281 51.910156 66.722656 51.535156 C 64.652344 51.050781 62.613281 51.734375 61.359375 53.449219 C 60.996094 53.917969 60.730469 54.453125 60.527344 55.007812 L 60.988281 55.472656 C 61.585938 53.761719 62.792969 52.394531 64.625 52.105469 C 64.933594 52.046875 65.578125 52.023438 66.128906 52.09375 C 66.132812 52.09375 66.136719 52.09375 66.140625 52.09375 C 66.121094 52.09375 66.117188 52.097656 66.164062 52.097656 C 66.421875 52.140625 66.679688 52.199219 66.933594 52.273438 C 67.128906 52.332031 67.320312 52.40625 67.507812 52.484375 C 68.371094 52.867188 68.773438 53.363281 69.421875 54.121094 C 70.574219 55.507812 71.261719 56.960938 71.734375 58.695312 C 72.046875 59.886719 72.164062 60.75 72.175781 61.953125 C 72.257812 63.078125 71.976562 64.410156 71.675781 65.027344 C 71.480469 65.484375 71.261719 65.9375 70.933594 66.320312 C 70.164062 67.238281 68.378906 68.132812 66.960938 67.984375 C 66.199219 67.917969 65.472656 67.660156 64.703125 67.164062 C 64.289062 66.90625 63.660156 66.582031 63.625 66.460938 C 63.460938 66.179688 63.019531 66.636719 63.257812 66.863281 C 64.101562 67.675781 65.382812 68.570312 67.210938 68.625 C 68.519531 68.660156 70.109375 67.910156 71.054688 67.035156 C 71.511719 66.570312 71.847656 66.003906 72.085938 65.398438 C 72.347656 64.816406 72.53125 64.207031 72.628906 63.570312 C 72.71875 63.054688 72.742188 62.527344 72.730469 62.003906 Z M 72.730469 62.003906" fill="#916e53"/></g><path fill-rule="nonzero" fill-opacity="1" d="M 38.511719 59.445312 C 38.019531 60.085938 37.304688 61.125 37.386719 61.960938 C 37.425781 62.273438 37.703125 62.589844 38.042969 62.503906 C 38.363281 62.410156 38.609375 62.160156 38.875 61.96875 C 39.242188 61.675781 39.617188 61.382812 39.945312 61.042969 C 40.34375 60.605469 40.726562 60.152344 41.039062 59.648438 C 41.40625 58.988281 41.773438 58.289062 41.835938 57.523438 C 41.839844 57.390625 41.847656 57.234375 41.742188 57.132812 C 41.628906 57.007812 41.449219 57.015625 41.328125 57.105469 C 41.238281 57.066406 41.132812 57.0625 41.03125 57.125 C 40.546875 57.386719 40.128906 57.761719 39.71875 58.128906 C 39.277344 58.535156 38.867188 58.964844 38.511719 59.445312 Z M 40.851562 58.652344 C 40.390625 59.617188 39.980469 60.132812 39.234375 60.863281 C 38.757812 61.265625 38.367188 61.628906 37.984375 61.867188 C 37.984375 61.867188 37.980469 61.863281 37.980469 61.859375 C 37.96875 61.703125 38.027344 61.488281 38.136719 61.214844 C 38.269531 60.925781 38.421875 60.648438 38.59375 60.386719 C 38.898438 59.9375 38.980469 59.847656 39.292969 59.460938 C 39.851562 58.828125 40.570312 58.191406 41.070312 57.851562 C 41.101562 57.828125 41.132812 57.808594 41.164062 57.789062 C 41.101562 58.097656 40.96875 58.394531 40.851562 58.652344 Z M 40.851562 58.652344" fill="#916e53"/><path fill-rule="nonzero" fill-opacity="1" d="M 38.355469 55.140625 C 37.875 54.492188 37.183594 53.4375 37.28125 52.605469 C 37.324219 52.289062 37.609375 51.980469 37.945312 52.074219 C 38.265625 52.171875 38.507812 52.425781 38.769531 52.625 C 39.128906 52.929688 39.496094 53.226562 39.816406 53.574219 C 40.203125 54.015625 40.582031 54.476562 40.878906 54.984375 C 41.238281 55.652344 41.589844 56.359375 41.636719 57.125 C 41.636719 57.261719 41.640625 57.417969 41.53125 57.515625 C 41.417969 57.636719 41.234375 57.625 41.117188 57.535156 C 41.027344 57.570312 40.921875 57.570312 40.824219 57.507812 C 40.34375 57.238281 39.929688 56.855469 39.53125 56.476562 C 39.101562 56.066406 38.699219 55.625 38.355469 55.140625 Z M 40.679688 55.976562 C 40.234375 55.007812 39.835938 54.480469 39.101562 53.734375 C 38.636719 53.324219 38.25 52.953125 37.875 52.707031 C 37.871094 52.707031 37.871094 52.710938 37.871094 52.714844 C 37.855469 52.871094 37.914062 53.085938 38.015625 53.363281 C 38.136719 53.652344 38.285156 53.933594 38.453125 54.203125 C 38.75 54.65625 38.828125 54.75 39.132812 55.136719 C 39.683594 55.785156 40.386719 56.433594 40.878906 56.78125 C 40.910156 56.804688 40.941406 56.824219 40.972656 56.847656 C 40.914062 56.539062 40.789062 56.242188 40.679688 55.976562 Z M 40.679688 55.976562" fill="#916e53"/><path fill-rule="nonzero" fill-opacity="1" d="M 32.332031 60.097656 C 31.949219 60.808594 31.414062 61.949219 31.628906 62.761719 C 31.71875 63.0625 32.042969 63.332031 32.363281 63.191406 C 32.664062 63.046875 32.867188 62.761719 33.097656 62.53125 C 33.414062 62.179688 33.734375 61.828125 34.003906 61.441406 C 34.328125 60.949219 34.636719 60.4375 34.859375 59.894531 C 35.117188 59.183594 35.367188 58.433594 35.304688 57.667969 C 35.289062 57.535156 35.269531 57.378906 35.152344 57.296875 C 35.019531 57.191406 34.839844 57.226562 34.734375 57.335938 C 34.640625 57.3125 34.539062 57.328125 34.449219 57.40625 C 34.011719 57.742188 33.65625 58.175781 33.3125 58.609375 C 32.941406 59.074219 32.605469 59.566406 32.332031 60.097656 Z M 34.515625 58.9375 C 34.214844 59.960938 33.894531 60.539062 33.273438 61.382812 C 32.871094 61.855469 32.539062 62.277344 32.199219 62.570312 C 32.199219 62.570312 32.199219 62.570312 32.195312 62.566406 C 32.160156 62.410156 32.183594 62.191406 32.246094 61.898438 C 32.328125 61.59375 32.4375 61.296875 32.5625 61.007812 C 32.792969 60.519531 32.855469 60.414062 33.105469 59.988281 C 33.554688 59.269531 34.164062 58.523438 34.601562 58.113281 C 34.625 58.085938 34.65625 58.0625 34.683594 58.039062 C 34.671875 58.347656 34.589844 58.664062 34.515625 58.9375 Z M 34.515625 58.9375" fill="#916e53"/><path fill-rule="nonzero" fill-opacity="1" d="M 31.484375 55.871094 C 30.90625 55.308594 30.054688 54.378906 30.015625 53.542969 C 30.011719 53.226562 30.242188 52.875 30.589844 52.910156 C 30.921875 52.960938 31.199219 53.171875 31.488281 53.324219 C 31.894531 53.5625 32.304688 53.800781 32.679688 54.089844 C 33.132812 54.464844 33.578125 54.859375 33.957031 55.3125 C 34.414062 55.914062 34.878906 56.554688 35.046875 57.304688 C 35.070312 57.4375 35.09375 57.59375 35.007812 57.703125 C 34.914062 57.84375 34.734375 57.859375 34.601562 57.789062 C 34.519531 57.839844 34.414062 57.855469 34.308594 57.808594 C 33.789062 57.621094 33.320312 57.308594 32.867188 57 C 32.371094 56.667969 31.902344 56.296875 31.484375 55.871094 Z M 33.914062 56.324219 C 33.320312 55.4375 32.84375 54.984375 31.996094 54.363281 C 31.472656 54.035156 31.03125 53.730469 30.617188 53.550781 C 30.617188 53.550781 30.617188 53.554688 30.617188 53.554688 C 30.628906 53.714844 30.714844 53.917969 30.863281 54.175781 C 31.03125 54.441406 31.222656 54.695312 31.429688 54.929688 C 31.796875 55.332031 31.890625 55.410156 32.253906 55.746094 C 32.894531 56.296875 33.699219 56.824219 34.242188 57.085938 C 34.273438 57.105469 34.308594 57.121094 34.34375 57.136719 C 34.238281 56.84375 34.0625 56.566406 33.914062 56.324219 Z M 33.914062 56.324219" fill="#916e53"/><path fill-rule="nonzero" fill-opacity="1" d="M 26.058594 64.867188 C 26.613281 65.457031 27.15625 64.480469 27.453125 64.078125 C 28.035156 63.210938 28.574219 62.289062 28.882812 61.285156 C 29.003906 60.78125 29.167969 60.238281 28.996094 59.726562 C 28.847656 59.402344 28.367188 59.53125 28.386719 59.871094 C 28.351562 59.867188 28.316406 59.867188 28.28125 59.871094 C 28.105469 59.898438 28.015625 60.066406 27.898438 60.183594 C 27.390625 60.824219 26.921875 61.5 26.484375 62.191406 C 26.070312 62.917969 25.511719 64.089844 26.058594 64.867188 Z M 26.722656 63.136719 C 26.964844 62.582031 27.15625 62.324219 27.566406 61.75 C 27.808594 61.410156 28.042969 61.070312 28.304688 60.746094 C 28.316406 60.730469 28.328125 60.710938 28.339844 60.695312 C 28.269531 61.054688 28.191406 61.277344 27.992188 61.75 C 27.660156 62.597656 26.878906 63.855469 26.488281 64.316406 C 26.480469 64.292969 26.484375 64.277344 26.46875 64.175781 C 26.496094 63.683594 26.539062 63.597656 26.722656 63.136719 Z M 26.722656 63.136719" fill="#916e53"/><path fill-rule="nonzero" fill-opacity="1" d="M 16.09375 61.652344 C 15.917969 61.894531 16.023438 62.246094 16.316406 62.328125 C 16.601562 62.417969 16.910156 62.371094 17.199219 62.335938 C 18.28125 62.144531 19.386719 61.933594 20.386719 61.457031 C 20.5625 61.371094 20.726562 61.261719 20.875 61.128906 C 20.945312 61.0625 21.035156 60.996094 21.066406 60.894531 C 21.179688 60.601562 20.785156 60.371094 20.574219 60.605469 C 20.511719 60.679688 20.4375 60.746094 20.351562 60.808594 C 20.441406 60.601562 20.25 60.355469 20.003906 60.398438 C 19 60.4375 18.378906 60.539062 17.402344 60.835938 C 16.921875 61.015625 16.386719 61.203125 16.09375 61.652344 Z M 19.539062 61.027344 C 19.699219 61.011719 19.855469 61.003906 20.015625 60.996094 C 20.023438 60.996094 20.035156 60.996094 20.046875 60.996094 C 19.597656 61.226562 18.992188 61.375 18.382812 61.527344 C 17.789062 61.660156 17.515625 61.71875 16.992188 61.789062 C 16.878906 61.796875 16.796875 61.804688 16.730469 61.808594 C 17.25 61.386719 18.65625 61.101562 19.539062 61.027344 Z M 19.539062 61.027344" fill="#916e53"/><path fill-rule="nonzero" fill-opacity="1" d="M 5.570312 61.347656 C 5.648438 61.578125 5.921875 61.691406 6.144531 61.585938 C 6.359375 61.480469 6.492188 61.265625 6.632812 61.078125 C 6.929688 60.648438 7.210938 60.203125 7.433594 59.730469 C 7.578125 59.390625 7.675781 59.035156 7.773438 58.679688 C 7.824219 58.527344 7.828125 58.320312 7.664062 58.242188 C 7.5 58.128906 7.253906 58.253906 7.234375 58.449219 C 7.222656 58.515625 7.195312 58.632812 7.15625 58.769531 C 7.066406 58.601562 6.796875 58.558594 6.675781 58.730469 C 6.675781 58.730469 6.675781 58.726562 6.675781 58.726562 C 6.476562 58.933594 6.308594 59.167969 6.15625 59.410156 C 5.964844 59.714844 5.804688 60.042969 5.6875 60.386719 C 5.59375 60.691406 5.480469 61.027344 5.570312 61.347656 Z M 7.007812 59.238281 C 6.972656 59.328125 6.941406 59.421875 6.90625 59.503906 C 6.699219 59.953125 6.589844 60.125 6.382812 60.460938 C 6.320312 60.550781 6.261719 60.640625 6.195312 60.730469 C 6.339844 60.21875 6.613281 59.71875 7.007812 59.238281 Z M 7.007812 59.238281" fill="#916e53"/><path fill-rule="nonzero" fill-opacity="1" d="M 23.429688 57.042969 C 23.5625 56.242188 24.558594 56.757812 25.027344 56.929688 C 25.992188 57.328125 26.949219 57.796875 27.761719 58.464844 C 28.140625 58.816406 28.578125 59.175781 28.714844 59.699219 C 28.773438 60.050781 28.304688 60.210938 28.132812 59.914062 C 28.105469 59.9375 28.078125 59.960938 28.042969 59.972656 C 27.882812 60.046875 27.710938 59.960938 27.550781 59.921875 C 26.773438 59.671875 26.007812 59.371094 25.261719 59.035156 C 24.515625 58.660156 23.402344 57.992188 23.429688 57.042969 Z M 24.941406 58.117188 C 25.449219 58.445312 25.753906 58.554688 26.410156 58.804688 C 26.796875 58.953125 27.183594 59.109375 27.578125 59.234375 C 27.597656 59.238281 27.617188 59.25 27.636719 59.253906 C 27.378906 58.992188 27.1875 58.851562 26.761719 58.570312 C 26.015625 58.046875 24.671875 57.433594 24.089844 57.265625 C 24.097656 57.289062 24.105469 57.296875 24.152344 57.390625 C 24.445312 57.785156 24.527344 57.835938 24.941406 58.117188 Z M 24.941406 58.117188" fill="#916e53"/><path fill-rule="nonzero" fill-opacity="1" d="M 17.464844 57.128906 C 17.472656 56.832031 17.769531 56.617188 18.054688 56.730469 C 18.335938 56.828125 18.550781 57.054688 18.753906 57.261719 C 19.5 58.070312 20.253906 58.910156 20.753906 59.898438 C 20.84375 60.070312 20.90625 60.257812 20.941406 60.453125 C 20.957031 60.550781 20.988281 60.660156 20.953125 60.753906 C 20.863281 61.054688 20.410156 61 20.386719 60.6875 C 20.382812 60.589844 20.363281 60.492188 20.332031 60.390625 C 20.277344 60.609375 19.972656 60.691406 19.808594 60.507812 C 19.035156 59.863281 18.605469 59.40625 18.007812 58.574219 C 17.734375 58.140625 17.421875 57.664062 17.464844 57.128906 Z M 19.820312 59.722656 C 19.933594 59.828125 20.054688 59.933594 20.175781 60.035156 C 20.1875 60.039062 20.191406 60.046875 20.203125 60.054688 C 19.984375 59.601562 19.59375 59.117188 19.203125 58.621094 C 18.8125 58.152344 18.632812 57.9375 18.257812 57.570312 C 18.175781 57.492188 18.113281 57.4375 18.0625 57.394531 C 18.222656 58.042969 19.164062 59.125 19.820312 59.722656 Z M 19.820312 59.722656" fill="#916e53"/><path fill-rule="nonzero" fill-opacity="1" d="M 9.175781 59.714844 C 9.039062 59.984375 9.195312 60.3125 9.5 60.351562 C 9.792969 60.402344 10.089844 60.304688 10.371094 60.226562 C 11.414062 59.875 12.476562 59.503906 13.390625 58.878906 C 13.550781 58.769531 13.699219 58.636719 13.820312 58.484375 C 13.882812 58.40625 13.960938 58.324219 13.976562 58.222656 C 14.042969 57.917969 13.617188 57.746094 13.449219 58.007812 C 13.398438 58.089844 13.332031 58.167969 13.257812 58.242188 C 13.3125 58.023438 13.089844 57.804688 12.851562 57.886719 C 11.867188 58.078125 11.265625 58.273438 10.34375 58.710938 C 9.898438 58.964844 9.394531 59.226562 9.175781 59.714844 Z M 12.488281 58.582031 C 12.644531 58.542969 12.796875 58.507812 12.953125 58.480469 C 12.964844 58.476562 12.972656 58.476562 12.984375 58.476562 C 12.574219 58.765625 12 59.003906 11.421875 59.25 C 10.851562 59.46875 10.589844 59.570312 10.085938 59.714844 C 9.972656 59.738281 9.894531 59.757812 9.828125 59.773438 C 10.28125 59.28125 11.628906 58.789062 12.488281 58.582031 Z M 12.488281 58.582031" fill="#916e53"/><path fill-rule="nonzero" fill-opacity="1" d="M 9.851562 55.039062 C 9.816406 54.742188 10.078125 54.488281 10.375 54.554688 C 10.667969 54.609375 10.914062 54.800781 11.148438 54.972656 C 12.007812 55.660156 12.875 56.378906 13.519531 57.277344 C 13.632812 57.441406 13.726562 57.613281 13.789062 57.800781 C 13.820312 57.894531 13.867188 57.996094 13.84375 58.097656 C 13.804688 58.410156 13.34375 58.421875 13.277344 58.117188 C 13.257812 58.019531 13.222656 57.925781 13.175781 57.832031 C 13.15625 58.054688 12.871094 58.179688 12.675781 58.023438 C 11.816406 57.507812 11.320312 57.117188 10.605469 56.386719 C 10.273438 55.996094 9.890625 55.574219 9.851562 55.039062 Z M 12.570312 57.25 C 12.699219 57.339844 12.832031 57.425781 12.96875 57.507812 C 12.980469 57.511719 12.988281 57.515625 12.996094 57.523438 C 12.710938 57.105469 12.257812 56.6875 11.796875 56.257812 C 11.339844 55.855469 11.125 55.667969 10.703125 55.355469 C 10.609375 55.292969 10.539062 55.25 10.484375 55.214844 C 10.738281 55.828125 11.832031 56.757812 12.570312 57.25 Z M 12.570312 57.25" fill="#916e53"/><path fill-rule="nonzero" fill-opacity="1" d="M 4.003906 58.164062 C 3.863281 57.96875 3.929688 57.671875 4.144531 57.558594 C 4.359375 57.449219 4.609375 57.460938 4.84375 57.457031 C 5.363281 57.464844 5.890625 57.496094 6.402344 57.589844 C 6.765625 57.667969 7.113281 57.800781 7.457031 57.929688 C 7.609375 57.976562 7.78125 58.089844 7.75 58.273438 C 7.742188 58.46875 7.5 58.597656 7.332031 58.5 C 7.269531 58.46875 7.160156 58.425781 7.023438 58.375 C 7.109375 58.546875 6.988281 58.792969 6.777344 58.792969 C 6.777344 58.792969 6.777344 58.792969 6.78125 58.792969 C 6.5 58.832031 6.210938 58.832031 5.921875 58.816406 C 5.5625 58.792969 5.203125 58.730469 4.855469 58.628906 C 4.550781 58.527344 4.210938 58.421875 4.003906 58.164062 Z M 6.554688 58.222656 C 6.460938 58.199219 6.371094 58.171875 6.28125 58.152344 C 5.796875 58.058594 5.59375 58.042969 5.203125 58.019531 C 5.09375 58.015625 4.980469 58.011719 4.871094 58.011719 C 5.371094 58.195312 5.933594 58.261719 6.554688 58.222656 Z M 6.554688 58.222656" fill="#916e53"/><path fill-rule="nonzero" fill-opacity="1" d="M 0.0742188 61.585938 C 0.121094 61.808594 0.3125 61.984375 0.53125 62.03125 C 0.875 62.082031 1.207031 61.910156 1.523438 61.796875 C 1.933594 61.617188 2.375 61.464844 2.714844 61.167969 C 2.816406 61.066406 2.921875 60.9375 2.878906 60.789062 C 2.847656 60.628906 2.683594 60.546875 2.539062 60.566406 C 2.527344 60.539062 2.511719 60.511719 2.488281 60.488281 C 2.339844 60.347656 2.105469 60.375 1.910156 60.347656 C 1.546875 60.324219 1.167969 60.375 0.84375 60.546875 C 0.453125 60.746094 -0.0078125 61.09375 0.0742188 61.585938 Z M 1.910156 60.972656 C 1.5625 61.148438 1.085938 61.351562 0.808594 61.417969 C 0.773438 61.425781 0.714844 61.4375 0.691406 61.441406 C 0.6875 61.441406 0.6875 61.441406 0.6875 61.441406 C 0.691406 61.433594 0.695312 61.425781 0.703125 61.410156 C 0.710938 61.402344 0.714844 61.398438 0.71875 61.390625 C 0.894531 61.214844 0.816406 61.289062 1.015625 61.160156 C 1.34375 60.984375 1.515625 60.945312 1.910156 60.972656 Z M 1.910156 60.972656" fill="#916e53"/><path fill-rule="nonzero" fill-opacity="1" d="M 46.160156 59.316406 C 45.128906 58.335938 43.746094 57.671875 42.273438 57.285156 C 41.15625 56.957031 39.980469 56.769531 38.792969 56.746094 C 37.941406 56.722656 37.082031 56.757812 36.25 56.910156 C 33.808594 57.398438 31.53125 58.304688 29.257812 59.171875 C 28.203125 59.550781 27.144531 59.953125 25.832031 60.253906 C 24.726562 60.472656 24.046875 60.527344 22.859375 60.5625 C 20.789062 60.566406 18.707031 59.929688 16.886719 59.164062 C 15.679688 58.652344 14.484375 58.109375 13.207031 57.726562 C 12.515625 57.53125 11.796875 57.410156 11.066406 57.355469 C 10.597656 57.328125 10.125 57.367188 9.660156 57.429688 C 9.164062 57.496094 8.667969 57.585938 8.195312 57.734375 C 6.953125 58.09375 5.945312 58.816406 4.863281 59.421875 C 4.386719 59.683594 3.910156 59.953125 3.410156 60.1875 C 3.179688 60.296875 2.945312 60.402344 2.714844 60.507812 C 2.621094 60.558594 2.503906 60.582031 2.4375 60.660156 C 2.296875 60.796875 2.433594 61.035156 2.652344 61.027344 C 2.796875 61.019531 2.917969 60.933594 3.050781 60.886719 C 3.300781 60.78125 3.550781 60.671875 3.800781 60.558594 C 4.460938 60.265625 5.128906 59.972656 5.75 59.613281 C 6.265625 59.316406 6.765625 59 7.304688 58.730469 C 7.863281 58.472656 8.058594 58.398438 8.554688 58.253906 C 9.496094 58.019531 10.011719 57.9375 10.929688 57.945312 C 11.609375 57.953125 13.082031 58.273438 13.632812 58.507812 C 14.828125 58.929688 15.960938 59.464844 17.125 59.9375 C 18.285156 60.386719 19.484375 60.785156 20.738281 61 C 21.753906 61.175781 22.796875 61.242188 23.828125 61.15625 C 24.644531 61.097656 25.460938 61.015625 26.25 60.835938 C 27.828125 60.445312 29.332031 59.855469 30.832031 59.289062 C 32.289062 58.730469 33.332031 58.34375 34.898438 57.917969 C 35.667969 57.699219 36.65625 57.476562 37.164062 57.441406 C 38.773438 57.335938 40.007812 57.386719 41.441406 57.722656 C 42.035156 57.855469 42.941406 58.128906 43.21875 58.242188 C 43.800781 58.445312 44.652344 58.929688 44.886719 59.097656 C 45.089844 59.234375 45.289062 59.371094 45.476562 59.523438 C 45.589844 59.601562 45.664062 59.722656 45.800781 59.769531 C 45.941406 59.832031 46.132812 59.769531 46.210938 59.65625 C 46.285156 59.542969 46.261719 59.402344 46.160156 59.316406 Z M 46.160156 59.316406" fill="#916e53"/><path fill-rule="nonzero" fill-opacity="1" d="M 81.476562 59.445312 C 81.96875 60.085938 82.683594 61.125 82.601562 61.960938 C 82.5625 62.273438 82.285156 62.589844 81.945312 62.503906 C 81.625 62.410156 81.378906 62.160156 81.113281 61.96875 C 80.746094 61.675781 80.375 61.382812 80.042969 61.042969 C 79.648438 60.605469 79.261719 60.152344 78.953125 59.648438 C 78.582031 58.988281 78.214844 58.289062 78.152344 57.523438 C 78.148438 57.390625 78.144531 57.234375 78.246094 57.132812 C 78.363281 57.007812 78.542969 57.015625 78.664062 57.105469 C 78.753906 57.066406 78.855469 57.0625 78.957031 57.125 C 79.445312 57.386719 79.863281 57.761719 80.269531 58.128906 C 80.714844 58.535156 81.125 58.964844 81.476562 59.445312 Z M 79.136719 58.652344 C 79.601562 59.617188 80.011719 60.132812 80.757812 60.863281 C 81.230469 61.265625 81.625 61.628906 82.007812 61.867188 C 82.007812 61.867188 82.007812 61.863281 82.007812 61.859375 C 82.019531 61.703125 81.960938 61.488281 81.851562 61.214844 C 81.722656 60.925781 81.570312 60.648438 81.398438 60.386719 C 81.089844 59.9375 81.011719 59.847656 80.699219 59.460938 C 80.136719 58.828125 79.417969 58.191406 78.917969 57.851562 C 78.890625 57.828125 78.859375 57.808594 78.824219 57.789062 C 78.890625 58.097656 79.023438 58.394531 79.136719 58.652344 Z M 79.136719 58.652344" fill="#916e53"/><path fill-rule="nonzero" fill-opacity="1" d="M 81.636719 55.140625 C 82.117188 54.492188 82.808594 53.4375 82.710938 52.605469 C 82.664062 52.289062 82.382812 51.980469 82.046875 52.074219 C 81.726562 52.171875 81.484375 52.425781 81.222656 52.625 C 80.863281 52.929688 80.496094 53.226562 80.175781 53.574219 C 79.789062 54.015625 79.410156 54.476562 79.109375 54.984375 C 78.753906 55.652344 78.402344 56.359375 78.355469 57.125 C 78.355469 57.261719 78.351562 57.417969 78.457031 57.515625 C 78.574219 57.636719 78.757812 57.625 78.875 57.535156 C 78.964844 57.570312 79.070312 57.570312 79.167969 57.507812 C 79.648438 57.238281 80.0625 56.855469 80.460938 56.476562 C 80.886719 56.066406 81.292969 55.625 81.636719 55.140625 Z M 79.3125 55.976562 C 79.757812 55.007812 80.15625 54.480469 80.886719 53.734375 C 81.355469 53.324219 81.742188 52.953125 82.117188 52.707031 C 82.121094 52.707031 82.121094 52.710938 82.121094 52.714844 C 82.136719 52.871094 82.078125 53.085938 81.976562 53.363281 C 81.851562 53.652344 81.707031 53.933594 81.539062 54.203125 C 81.242188 54.65625 81.160156 54.75 80.855469 55.136719 C 80.308594 55.785156 79.605469 56.433594 79.109375 56.78125 C 79.082031 56.804688 79.050781 56.824219 79.019531 56.847656 C 79.078125 56.539062 79.199219 56.242188 79.3125 55.976562 Z M 79.3125 55.976562" fill="#916e53"/><path fill-rule="nonzero" fill-opacity="1" d="M 87.660156 60.097656 C 88.042969 60.808594 88.578125 61.949219 88.363281 62.761719 C 88.273438 63.0625 87.949219 63.332031 87.628906 63.191406 C 87.328125 63.046875 87.125 62.761719 86.890625 62.53125 C 86.578125 62.179688 86.257812 61.828125 85.988281 61.441406 C 85.664062 60.949219 85.355469 60.4375 85.132812 59.894531 C 84.875 59.183594 84.625 58.433594 84.6875 57.667969 C 84.703125 57.535156 84.722656 57.378906 84.839844 57.296875 C 84.972656 57.191406 85.152344 57.226562 85.257812 57.335938 C 85.351562 57.3125 85.453125 57.328125 85.542969 57.40625 C 85.980469 57.742188 86.335938 58.175781 86.675781 58.609375 C 87.046875 59.074219 87.386719 59.566406 87.660156 60.097656 Z M 85.476562 58.9375 C 85.777344 59.960938 86.097656 60.539062 86.71875 61.382812 C 87.121094 61.855469 87.453125 62.277344 87.792969 62.570312 C 87.792969 62.570312 87.792969 62.570312 87.796875 62.566406 C 87.832031 62.410156 87.808594 62.191406 87.746094 61.898438 C 87.664062 61.59375 87.554688 61.296875 87.429688 61.007812 C 87.199219 60.519531 87.132812 60.414062 86.886719 59.988281 C 86.4375 59.269531 85.828125 58.523438 85.390625 58.113281 C 85.367188 58.085938 85.335938 58.0625 85.308594 58.039062 C 85.320312 58.347656 85.402344 58.664062 85.476562 58.9375 Z M 85.476562 58.9375" fill="#916e53"/><path fill-rule="nonzero" fill-opacity="1" d="M 88.507812 55.871094 C 89.085938 55.308594 89.9375 54.378906 89.972656 53.542969 C 89.980469 53.226562 89.75 52.875 89.398438 52.910156 C 89.070312 52.960938 88.789062 53.171875 88.5 53.324219 C 88.097656 53.5625 87.6875 53.800781 87.3125 54.089844 C 86.859375 54.464844 86.410156 54.859375 86.035156 55.3125 C 85.578125 55.914062 85.113281 56.554688 84.945312 57.304688 C 84.921875 57.4375 84.894531 57.59375 84.980469 57.703125 C 85.078125 57.84375 85.257812 57.859375 85.390625 57.789062 C 85.46875 57.839844 85.574219 57.855469 85.683594 57.808594 C 86.203125 57.621094 86.667969 57.308594 87.125 57 C 87.621094 56.667969 88.089844 56.296875 88.507812 55.871094 Z M 86.078125 56.324219 C 86.671875 55.4375 87.148438 54.984375 87.992188 54.363281 C 88.515625 54.035156 88.960938 53.730469 89.371094 53.550781 C 89.371094 53.550781 89.371094 53.554688 89.375 53.554688 C 89.363281 53.714844 89.273438 53.917969 89.125 54.175781 C 88.957031 54.441406 88.769531 54.695312 88.558594 54.929688 C 88.191406 55.332031 88.101562 55.410156 87.738281 55.746094 C 87.09375 56.296875 86.292969 56.824219 85.75 57.085938 C 85.714844 57.105469 85.683594 57.121094 85.648438 57.136719 C 85.753906 56.84375 85.925781 56.566406 86.078125 56.324219 Z M 86.078125 56.324219" fill="#916e53"/><path fill-rule="nonzero" fill-opacity="1" d="M 93.933594 64.867188 C 93.378906 65.457031 92.832031 64.480469 92.535156 64.078125 C 91.953125 63.210938 91.414062 62.289062 91.109375 61.285156 C 90.984375 60.78125 90.824219 60.238281 90.996094 59.726562 C 91.140625 59.402344 91.621094 59.53125 91.605469 59.871094 C 91.636719 59.867188 91.671875 59.867188 91.707031 59.871094 C 91.882812 59.898438 91.976562 60.066406 92.089844 60.183594 C 92.601562 60.824219 93.066406 61.5 93.507812 62.191406 C 93.921875 62.917969 94.480469 64.089844 93.933594 64.867188 Z M 93.269531 63.136719 C 93.027344 62.582031 92.832031 62.324219 92.425781 61.75 C 92.183594 61.410156 91.949219 61.070312 91.6875 60.746094 C 91.675781 60.730469 91.664062 60.710938 91.648438 60.695312 C 91.722656 61.054688 91.800781 61.277344 92 61.75 C 92.332031 62.597656 93.113281 63.855469 93.503906 64.316406 C 93.507812 64.292969 93.507812 64.277344 93.519531 64.175781 C 93.496094 63.683594 93.453125 63.597656 93.269531 63.136719 Z M 93.269531 63.136719" fill="#916e53"/><path fill-rule="nonzero" fill-opacity="1" d="M 103.898438 61.652344 C 104.070312 61.894531 103.964844 62.246094 103.671875 62.328125 C 103.390625 62.417969 103.082031 62.371094 102.792969 62.335938 C 101.707031 62.144531 100.601562 61.933594 99.601562 61.457031 C 99.425781 61.371094 99.261719 61.261719 99.117188 61.128906 C 99.042969 61.0625 98.953125 60.996094 98.925781 60.894531 C 98.808594 60.601562 99.207031 60.371094 99.414062 60.605469 C 99.476562 60.679688 99.550781 60.746094 99.636719 60.808594 C 99.550781 60.601562 99.738281 60.355469 99.984375 60.398438 C 100.988281 60.4375 101.609375 60.539062 102.585938 60.835938 C 103.070312 61.015625 103.605469 61.203125 103.898438 61.652344 Z M 100.449219 61.027344 C 100.292969 61.011719 100.132812 61.003906 99.976562 60.996094 C 99.964844 60.996094 99.953125 60.996094 99.945312 60.996094 C 100.394531 61.226562 100.996094 61.375 101.605469 61.527344 C 102.203125 61.660156 102.476562 61.71875 102.996094 61.789062 C 103.113281 61.796875 103.191406 61.804688 103.261719 61.808594 C 102.742188 61.386719 101.332031 61.101562 100.449219 61.027344 Z M 100.449219 61.027344" fill="#916e53"/><path fill-rule="nonzero" fill-opacity="1" d="M 114.421875 61.347656 C 114.34375 61.578125 114.066406 61.691406 113.847656 61.585938 C 113.632812 61.480469 113.496094 61.265625 113.359375 61.078125 C 113.0625 60.648438 112.78125 60.203125 112.558594 59.730469 C 112.410156 59.390625 112.316406 59.035156 112.21875 58.679688 C 112.167969 58.527344 112.164062 58.320312 112.328125 58.242188 C 112.492188 58.128906 112.734375 58.253906 112.753906 58.449219 C 112.765625 58.515625 112.796875 58.632812 112.835938 58.769531 C 112.925781 58.601562 113.191406 58.558594 113.316406 58.730469 C 113.316406 58.730469 113.316406 58.726562 113.3125 58.726562 C 113.515625 58.933594 113.683594 59.167969 113.835938 59.410156 C 114.027344 59.714844 114.1875 60.042969 114.304688 60.386719 C 114.398438 60.691406 114.511719 61.027344 114.421875 61.347656 Z M 112.984375 59.238281 C 113.015625 59.328125 113.050781 59.421875 113.085938 59.503906 C 113.292969 59.953125 113.402344 60.125 113.609375 60.460938 C 113.667969 60.550781 113.730469 60.640625 113.792969 60.730469 C 113.652344 60.21875 113.375 59.71875 112.984375 59.238281 Z M 112.984375 59.238281" fill="#916e53"/><path fill-rule="nonzero" fill-opacity="1" d="M 96.5625 57.042969 C 96.429688 56.242188 95.433594 56.757812 94.964844 56.929688 C 94 57.328125 93.042969 57.796875 92.230469 58.464844 C 91.847656 58.816406 91.414062 59.175781 91.277344 59.699219 C 91.21875 60.050781 91.6875 60.210938 91.859375 59.914062 C 91.886719 59.9375 91.914062 59.960938 91.949219 59.972656 C 92.109375 60.046875 92.28125 59.960938 92.441406 59.921875 C 93.21875 59.671875 93.984375 59.371094 94.730469 59.035156 C 95.476562 58.660156 96.589844 57.992188 96.5625 57.042969 Z M 95.050781 58.117188 C 94.542969 58.445312 94.238281 58.554688 93.582031 58.804688 C 93.195312 58.953125 92.808594 59.109375 92.414062 59.234375 C 92.394531 59.238281 92.375 59.25 92.355469 59.253906 C 92.613281 58.992188 92.804688 58.851562 93.230469 58.570312 C 93.976562 58.046875 95.320312 57.433594 95.902344 57.265625 C 95.894531 57.289062 95.886719 57.296875 95.839844 57.390625 C 95.546875 57.785156 95.460938 57.835938 95.050781 58.117188 Z M 95.050781 58.117188" fill="#916e53"/><path fill-rule="nonzero" fill-opacity="1" d="M 102.527344 57.128906 C 102.519531 56.832031 102.222656 56.617188 101.9375 56.730469 C 101.65625 56.828125 101.441406 57.054688 101.234375 57.261719 C 100.492188 58.070312 99.738281 58.910156 99.238281 59.898438 C 99.148438 60.070312 99.085938 60.257812 99.050781 60.453125 C 99.03125 60.550781 99.003906 60.660156 99.039062 60.753906 C 99.128906 61.054688 99.582031 61 99.605469 60.6875 C 99.609375 60.589844 99.628906 60.492188 99.660156 60.390625 C 99.714844 60.609375 100.015625 60.691406 100.183594 60.507812 C 100.957031 59.863281 101.386719 59.40625 101.984375 58.574219 C 102.257812 58.140625 102.570312 57.664062 102.527344 57.128906 Z M 100.171875 59.722656 C 100.054688 59.828125 99.9375 59.933594 99.8125 60.035156 C 99.804688 60.039062 99.796875 60.046875 99.789062 60.054688 C 100.007812 59.601562 100.394531 59.117188 100.785156 58.621094 C 101.179688 58.152344 101.359375 57.9375 101.730469 57.570312 C 101.816406 57.492188 101.875 57.4375 101.925781 57.394531 C 101.769531 58.042969 100.828125 59.125 100.171875 59.722656 Z M 100.171875 59.722656" fill="#916e53"/><path fill-rule="nonzero" fill-opacity="1" d="M 110.816406 59.714844 C 110.949219 59.984375 110.792969 60.3125 110.492188 60.351562 C 110.199219 60.402344 109.902344 60.304688 109.621094 60.226562 C 108.578125 59.875 107.515625 59.503906 106.597656 58.878906 C 106.4375 58.769531 106.292969 58.636719 106.167969 58.484375 C 106.105469 58.40625 106.027344 58.324219 106.015625 58.222656 C 105.945312 57.917969 106.375 57.746094 106.542969 58.007812 C 106.59375 58.089844 106.660156 58.167969 106.730469 58.242188 C 106.675781 58.023438 106.902344 57.804688 107.136719 57.886719 C 108.125 58.078125 108.722656 58.273438 109.644531 58.710938 C 110.09375 58.964844 110.59375 59.226562 110.816406 59.714844 Z M 107.5 58.582031 C 107.347656 58.542969 107.191406 58.507812 107.035156 58.480469 C 107.027344 58.476562 107.015625 58.476562 107.003906 58.476562 C 107.414062 58.765625 107.988281 59.003906 108.570312 59.25 C 109.140625 59.46875 109.402344 59.570312 109.90625 59.714844 C 110.015625 59.738281 110.09375 59.757812 110.164062 59.773438 C 109.710938 59.28125 108.363281 58.789062 107.5 58.582031 Z M 107.5 58.582031" fill="#916e53"/><path fill-rule="nonzero" fill-opacity="1" d="M 110.140625 55.039062 C 110.175781 54.742188 109.914062 54.488281 109.617188 54.554688 C 109.324219 54.609375 109.078125 54.800781 108.84375 54.972656 C 107.984375 55.660156 107.117188 56.378906 106.472656 57.277344 C 106.359375 57.441406 106.269531 57.613281 106.203125 57.800781 C 106.171875 57.894531 106.128906 57.996094 106.148438 58.097656 C 106.191406 58.410156 106.648438 58.421875 106.71875 58.117188 C 106.738281 58.019531 106.773438 57.925781 106.816406 57.832031 C 106.839844 58.054688 107.125 58.179688 107.316406 58.023438 C 108.175781 57.507812 108.671875 57.117188 109.386719 56.386719 C 109.71875 55.996094 110.101562 55.574219 110.140625 55.039062 Z M 107.421875 57.25 C 107.289062 57.339844 107.15625 57.425781 107.023438 57.507812 C 107.011719 57.511719 107.003906 57.515625 106.996094 57.523438 C 107.28125 57.105469 107.734375 56.6875 108.195312 56.257812 C 108.652344 55.855469 108.863281 55.667969 109.289062 55.355469 C 109.382812 55.292969 109.453125 55.25 109.507812 55.214844 C 109.253906 55.828125 108.160156 56.757812 107.421875 57.25 Z M 107.421875 57.25" fill="#916e53"/><path fill-rule="nonzero" fill-opacity="1" d="M 115.984375 58.164062 C 116.128906 57.96875 116.058594 57.671875 115.847656 57.558594 C 115.632812 57.449219 115.382812 57.460938 115.148438 57.457031 C 114.625 57.464844 114.101562 57.496094 113.585938 57.589844 C 113.226562 57.667969 112.878906 57.800781 112.53125 57.929688 C 112.378906 57.976562 112.210938 58.089844 112.238281 58.273438 C 112.246094 58.46875 112.488281 58.597656 112.65625 58.5 C 112.71875 58.46875 112.832031 58.425781 112.964844 58.375 C 112.882812 58.546875 113.003906 58.792969 113.210938 58.792969 C 113.492188 58.832031 113.78125 58.832031 114.066406 58.816406 C 114.429688 58.792969 114.789062 58.730469 115.136719 58.628906 C 115.4375 58.527344 115.777344 58.421875 115.984375 58.164062 Z M 113.4375 58.222656 C 113.527344 58.199219 113.621094 58.171875 113.710938 58.152344 C 114.195312 58.058594 114.398438 58.042969 114.789062 58.019531 C 114.898438 58.015625 115.011719 58.011719 115.121094 58.011719 C 114.621094 58.195312 114.054688 58.261719 113.4375 58.222656 Z M 113.4375 58.222656" fill="#916e53"/><path fill-rule="nonzero" fill-opacity="1" d="M 119.914062 61.585938 C 119.871094 61.808594 119.675781 61.984375 119.457031 62.03125 C 119.113281 62.082031 118.785156 61.910156 118.46875 61.796875 C 118.058594 61.617188 117.617188 61.464844 117.273438 61.167969 C 117.171875 61.066406 117.066406 60.9375 117.109375 60.789062 C 117.144531 60.628906 117.304688 60.546875 117.449219 60.566406 C 117.460938 60.539062 117.476562 60.511719 117.5 60.488281 C 117.652344 60.347656 117.886719 60.375 118.082031 60.347656 C 118.445312 60.324219 118.820312 60.375 119.148438 60.546875 C 119.539062 60.746094 120 61.09375 119.914062 61.585938 Z M 118.082031 60.972656 C 118.429688 61.148438 118.90625 61.351562 119.183594 61.417969 C 119.214844 61.425781 119.277344 61.4375 119.300781 61.441406 C 119.304688 61.441406 119.304688 61.441406 119.304688 61.441406 C 119.300781 61.433594 119.296875 61.425781 119.289062 61.410156 C 119.28125 61.402344 119.277344 61.398438 119.273438 61.390625 C 119.097656 61.214844 119.175781 61.289062 118.976562 61.160156 C 118.648438 60.984375 118.476562 60.945312 118.082031 60.972656 Z M 118.082031 60.972656" fill="#916e53"/><path fill-rule="nonzero" fill-opacity="1" d="M 73.832031 59.316406 C 74.863281 58.335938 76.246094 57.671875 77.71875 57.285156 C 78.835938 56.957031 80.011719 56.769531 81.199219 56.746094 C 82.050781 56.722656 82.910156 56.757812 83.742188 56.910156 C 86.183594 57.398438 88.460938 58.304688 90.734375 59.171875 C 91.789062 59.550781 92.84375 59.953125 94.160156 60.253906 C 95.261719 60.472656 95.945312 60.527344 97.132812 60.5625 C 99.203125 60.566406 101.285156 59.929688 103.105469 59.164062 C 104.3125 58.652344 105.507812 58.109375 106.78125 57.726562 C 107.476562 57.53125 108.195312 57.410156 108.925781 57.355469 C 109.394531 57.328125 109.867188 57.367188 110.332031 57.429688 C 110.828125 57.496094 111.324219 57.585938 111.796875 57.734375 C 113.039062 58.09375 114.046875 58.816406 115.128906 59.421875 C 115.605469 59.683594 116.082031 59.953125 116.582031 60.1875 C 116.8125 60.296875 117.042969 60.402344 117.277344 60.507812 C 117.371094 60.558594 117.488281 60.582031 117.554688 60.660156 C 117.695312 60.796875 117.558594 61.035156 117.339844 61.027344 C 117.195312 61.019531 117.074219 60.933594 116.941406 60.886719 C 116.6875 60.78125 116.441406 60.671875 116.191406 60.558594 C 115.527344 60.265625 114.863281 59.972656 114.242188 59.613281 C 113.726562 59.316406 113.226562 59 112.6875 58.730469 C 112.125 58.472656 111.933594 58.398438 111.4375 58.253906 C 110.496094 58.019531 109.980469 57.9375 109.0625 57.945312 C 108.382812 57.953125 106.910156 58.273438 106.355469 58.507812 C 105.164062 58.929688 104.03125 59.464844 102.867188 59.9375 C 101.707031 60.386719 100.503906 60.785156 99.253906 61 C 98.238281 61.175781 97.195312 61.242188 96.164062 61.15625 C 95.347656 61.097656 94.53125 61.015625 93.742188 60.835938 C 92.164062 60.445312 90.660156 59.855469 89.160156 59.289062 C 87.703125 58.730469 86.660156 58.34375 85.09375 57.917969 C 84.320312 57.699219 83.335938 57.476562 82.828125 57.441406 C 81.21875 57.335938 79.984375 57.386719 78.550781 57.722656 C 77.957031 57.855469 77.046875 58.128906 76.773438 58.242188 C 76.191406 58.445312 75.339844 58.929688 75.105469 59.097656 C 74.902344 59.234375 74.703125 59.371094 74.515625 59.523438 C 74.402344 59.601562 74.328125 59.722656 74.191406 59.769531 C 74.050781 59.832031 73.859375 59.769531 73.78125 59.65625 C 73.707031 59.542969 73.730469 59.402344 73.832031 59.316406 Z M 73.832031 59.316406" fill="#916e53"/></svg>